<?xml version="1.0" encoding="UTF-8"?>
<!DOCTYPE svg PUBLIC "-//W3C//DTD SVG 1.1//EN" "http://www.w3.org/Graphics/SVG/1.1/DTD/svg11.dtd">
<!-- Creator: CorelDRAW 2020 (64-Bit) -->
<svg xmlns="http://www.w3.org/2000/svg" xml:space="preserve" width="100mm" height="50.0002mm" version="1.1" style="shape-rendering:geometricPrecision; text-rendering:geometricPrecision; image-rendering:optimizeQuality; fill-rule:evenodd; clip-rule:evenodd"
viewBox="0 0 999245 499623"
 xmlns:xlink="http://www.w3.org/1999/xlink"
 xmlns:xodm="http://www.corel.com/coreldraw/odm/2003">
 <defs>
  <style type="text/css">
   <![CDATA[
    .fil0 {fill:none}
    .fil3 {fill:#FFF}
    .fil2 {fill:#FFF;fill-rule:nonzero}
    .fil1 {fill:#FFF;fill-rule:nonzero}
   ]]>
  </style>
 </defs>
 <g id="Слой_x0020_1">
  <metadata id="CorelCorpID_0Corel-Layer"/>
  <rect class="fil0" width="999245" height="499623"/>
  <path class="fil1" d="M390206 227747l-11809 31947 23618 0 -11809 -31947zm-4920 -8591l9856 0 24484 64244 -9047 0 -5817 -16480 -29038 0 -5817 16480 -9150 0 24528 -64244z"/>
  <path id="1" class="fil1" d="M437692 226293l0 49968 10502 0c8856,0 15348,-2011 19461,-6021 4113,-4025 6169,-10355 6169,-19022 0,-8606 -2056,-14923 -6169,-18918 -4113,-4010 -10605,-6007 -19461,-6007l-10502 0zm-8724 -7138l17889 0c12441,0 21577,2585 27393,7769 5832,5170 8739,13278 8739,24294 0,11076 -2923,19197 -8768,24398 -5861,5184 -14982,7784 -27364,7784l-17889 0 0 -64244z"/>
  <path id="2" class="fil1" d="M535337 221270l0 8461c-3304,-1572 -6404,-2747 -9342,-3510 -2923,-778 -5743,-1160 -8460,-1160 -4744,0 -8388,910 -10958,2746 -2570,1837 -3848,4451 -3848,7829 0,2820 852,4949 2570,6389 1704,1439 4935,2614 9695,3539l5258 1028c6477,1234 11265,3407 14350,6536 3070,3115 4612,7285 4612,12530 0,6227 -2085,10942 -6256,14158 -4172,3218 -10282,4818 -18345,4818 -3041,0 -6272,-338 -9695,-1028 -3436,-675 -6977,-1690 -10649,-3026l0 -8989c3525,1982 6977,3481 10370,4480 3378,1013 6698,1513 9973,1513 4964,0 8783,-969 11485,-2923 2688,-1954 4039,-4744 4039,-8358 0,-3158 -969,-5625 -2908,-7402 -1939,-1778 -5111,-3114 -9533,-4010l-5287 -1028c-6478,-1292 -11164,-3304 -14056,-6051 -2894,-2761 -4348,-6580 -4348,-11485 0,-5670 1997,-10149 5992,-13410 4010,-3276 9518,-4906 16538,-4906 3011,0 6080,265 9209,807 3129,544 6316,1367 9592,2453z"/>
  <polygon id="3" class="fil1" points="553564,272472 562642,272472 562642,283400 553564,283400 "/>
  <path id="4" class="fil1" d="M589505 226293l0 49968 10502 0c8856,0 15348,-2011 19461,-6021 4113,-4025 6169,-10355 6169,-19022 0,-8606 -2056,-14923 -6169,-18918 -4113,-4010 -10605,-6007 -19461,-6007l-10502 0zm-8724 -7138l17889 0c12441,0 21577,2585 27393,7769 5832,5170 8739,13278 8739,24294 0,11076 -2923,19197 -8768,24398 -5861,5184 -14982,7784 -27364,7784l-17889 0 0 -64244z"/>
  <path id="5" class="fil1" d="M668614 227747l-11809 31947 23618 0 -11809 -31947zm-4920 -8591l9856 0 24484 64244 -9047 0 -5817 -16480 -29038 0 -5817 16480 -9150 0 24528 -64244z"/>
  <polygon id="6" class="fil1" points="691644,219156 746019,219156 746019,226470 723194,226470 723194,283400 714469,283400 714469,226470 691644,226470 "/>
  <path id="7" class="fil1" d="M769049 227747l-11809 31947 23618 0 -11809 -31947zm-4920 -8591l9856 0 24484 64244 -9047 0 -5817 -16480 -29038 0 -5817 16480 -9150 0 24528 -64244z"/>
  <path class="fil2" d="M237065 183184c19065,11008 38131,22010 57196,33017l0 67223 -29114 16809 -8 0 -29105 16803 -29105 -16803 -8 0 -29114 -16809 0 -67223 29098 -16799c43,-26 87,-49 132,-71l28997 -16742 1031 596zm-3110 101545l-22989 13057 22989 13272 0 -26329zm-23926 8823l21417 -12164 -21417 -12127 0 24291zm29843 -12155l22157 12546 0 -24670 -22157 12124zm20883 16587l-22677 -13119 33 26192 22644 -13073zm-20575 -80590l21849 12615 0 -25230 -21849 12614zm28070 16207l21854 12617 0 -25235 -21854 12617zm21854 19744l-22536 12585 22536 12758 0 -25344zm-86170 12467l-21971 -12442 0 25271 21971 -12829zm-21971 -19593l21853 -12617 -21853 -12617 0 25235zm49923 -28824l-21857 -12619 0 25240 21857 -12620zm-19785 -16211l21853 12617 0 -25235 -21853 12617zm26010 12617l21853 -12617 -21853 -12617 0 25235zm-32223 23391l-21828 12602 21836 12561 -8 -25164zm6514 28651l21552 12203 0 -24645 -21552 12443zm25709 11792l21338 -11713 -21371 -12524 33 24237zm28008 -15279l21866 -12573 -21800 -12585 -66 25159zm-26674 -12559l22584 12671 0 -25276 -22584 12604zm48539 32462l-21816 -12986 17 25572 21799 -12585zm-77956 -19823l21866 -12624 -21866 -12624 0 25249zm-4156 6837l-21846 12954 21862 12621 -16 -25576zm16 -39253l0 -25245 -21862 12622 21862 12622zm60296 -25240l0 25235 21854 -12617 -21854 -12617zm-32231 16209l-21853 12617 21853 12616 0 -25234zm26010 12617l-21853 -12617 0 25234 21853 -12616z"/>
  <rect class="fil3" x="324205" y="162535" width="6546" height="174556"/>
 </g>
</svg>
