<?xml version="1.0" encoding="UTF-8"?>
<!DOCTYPE svg PUBLIC "-//W3C//DTD SVG 1.1//EN" "http://www.w3.org/Graphics/SVG/1.1/DTD/svg11.dtd">
<!-- Creator: CorelDRAW 2020 (64-Bit) -->
<svg xmlns="http://www.w3.org/2000/svg" xml:space="preserve" width="100mm" height="50.0002mm" version="1.1" style="shape-rendering:geometricPrecision; text-rendering:geometricPrecision; image-rendering:optimizeQuality; fill-rule:evenodd; clip-rule:evenodd"
viewBox="0 0 999245 499623"
 xmlns:xlink="http://www.w3.org/1999/xlink"
 xmlns:xodm="http://www.corel.com/coreldraw/odm/2003">
 <defs>
  <style type="text/css">
   <![CDATA[
    .fil0 {fill:none}
    .fil3 {fill:#FFF}
    .fil2 {fill:#FFF;fill-rule:nonzero}
    .fil1 {fill:#FFF;fill-rule:nonzero}
   ]]>
  </style>
 </defs>
 <g id="Слой_x0020_1">
  <metadata id="CorelCorpID_0Corel-Layer"/>
  <rect class="fil0" width="999245" height="499623"/>
  <path class="fil1" d="M380541 276076l8343 0 0 22207 -8343 0 0 -14717 -48235 0 0 14717 -8343 0 0 -22207 5714 0c2159,-3702 3951,-8754 5405,-15187 1454,-6419 2174,-16245 2174,-29479l0 -10928 43285 0 0 55594zm-8388 0l0 -48191 -26511 0 0 4304c0,12103 -675,21400 -2041,27878 -1366,6492 -3218,11823 -5567,16010l34119 0z"/>
  <polygon id="1" class="fil1" points="447326,283566 439365,283566 439365,232878 406318,283566 397784,283566 397784,220482 405715,220482 405715,271125 438763,220482 447326,220482 "/>
  <polygon id="2" class="fil1" points="520736,283566 512819,283566 512819,229912 494827,283566 487337,283566 469358,229912 469358,283566 461427,283566 461427,220482 473956,220482 491038,273064 508208,220482 520736,220482 "/>
  <path id="3" class="fil1" d="M567459 257745l-11104 -29258 -10576 29258 21680 0zm19197 25821l-9430 0 -7314 -19197 -26424 0 -6962 19197 -8827 0 24235 -63084 8989 0 25733 63084z"/>
  <polygon id="4" class="fil1" points="645172,283566 634156,283566 611786,252105 601975,261711 601975,283566 593618,283566 593618,220482 601975,220482 601975,251767 632746,220482 644012,220482 617588,246391 "/>
  <path id="5" class="fil1" d="M678821 284638c-8915,0 -16039,-2923 -21356,-8798 -5332,-5861 -7991,-13807 -7991,-23809 0,-10016 2659,-17963 7991,-23824 5317,-5860 12441,-8797 21356,-8797 6859,0 12705,1851 17523,5552 4817,3701 7520,8577 8122,14629l-8591 0c-353,-3995 -2086,-7153 -5200,-9518 -3099,-2350 -7036,-3525 -11765,-3525 -6389,0 -11456,2203 -15187,6610 -3730,4407 -5596,10693 -5596,18874 0,8137 1851,14424 5552,18845 3701,4421 8725,6624 15056,6624 4935,0 8930,-1204 11971,-3613 3040,-2408 4758,-5861 5170,-10325l8591 0c-602,6712 -3231,11897 -7916,15569 -4671,3672 -10576,5508 -17729,5508z"/>
  <polygon id="6" class="fil1" points="765583,283566 757622,283566 757622,232878 724575,283566 716041,283566 716041,220482 723972,220482 723972,271125 757020,220482 765583,220482 "/>
  <path id="7" class="fil1" d="M806107 284638c-8915,0 -16039,-2923 -21356,-8798 -5332,-5861 -7991,-13807 -7991,-23809 0,-10016 2659,-17963 7991,-23824 5317,-5860 12441,-8797 21356,-8797 6859,0 12705,1851 17523,5552 4817,3701 7520,8577 8122,14629l-8591 0c-353,-3995 -2086,-7153 -5200,-9518 -3099,-2350 -7036,-3525 -11765,-3525 -6389,0 -11456,2203 -15187,6610 -3730,4407 -5596,10693 -5596,18874 0,8137 1851,14424 5552,18845 3701,4421 8725,6624 15056,6624 4935,0 8930,-1204 11971,-3613 3040,-2408 4758,-5861 5170,-10325l8591 0c-602,6712 -3231,11897 -7916,15569 -4671,3672 -10576,5508 -17729,5508z"/>
  <path class="fil2" d="M200282 183184c19065,11008 38131,22010 57196,33017l0 67223 -29114 16809 -8 0 -29105 16803 -29105 -16803 -8 0 -29114 -16809 0 -67223 29098 -16799c43,-26 87,-49 132,-71l28997 -16742 1031 596zm-3110 101545l-22989 13057 22989 13272 0 -26329zm-23926 8823l21417 -12164 -21417 -12127 0 24291zm29843 -12155l22157 12546 0 -24670 -22157 12124zm20883 16587l-22677 -13119 33 26192 22644 -13073zm-20575 -80590l21849 12615 0 -25230 -21849 12614zm28070 16207l21854 12617 0 -25235 -21854 12617zm21854 19744l-22536 12585 22536 12758 0 -25344zm-86170 12467l-21971 -12442 0 25271 21971 -12829zm-21971 -19593l21853 -12617 -21853 -12617 0 25235zm49923 -28824l-21857 -12619 0 25240 21857 -12620zm-19785 -16211l21853 12617 0 -25235 -21853 12617zm26010 12617l21853 -12617 -21853 -12617 0 25235zm-32223 23391l-21828 12602 21836 12561 -8 -25164zm6514 28651l21552 12203 0 -24645 -21552 12443zm25709 11792l21338 -11713 -21371 -12524 33 24237zm28008 -15279l21866 -12573 -21800 -12585 -66 25159zm-26674 -12559l22584 12671 0 -25276 -22584 12604zm48539 32462l-21816 -12986 17 25572 21799 -12585zm-77956 -19823l21866 -12624 -21866 -12624 0 25249zm-4156 6837l-21846 12954 21862 12621 -16 -25576zm16 -39253l0 -25245 -21862 12622 21862 12622zm60296 -25240l0 25235 21854 -12617 -21854 -12617zm-32231 16209l-21853 12617 21853 12616 0 -25234zm26010 12617l-21853 -12617 0 25234 21853 -12616z"/>
  <rect class="fil3" x="287422" y="162535" width="6546" height="174556"/>
 </g>
</svg>
