<?xml version="1.0" encoding="UTF-8"?>
<!DOCTYPE svg PUBLIC "-//W3C//DTD SVG 1.1//EN" "http://www.w3.org/Graphics/SVG/1.1/DTD/svg11.dtd">
<!-- Creator: CorelDRAW 2020 (64-Bit) -->
<svg xmlns="http://www.w3.org/2000/svg" xml:space="preserve" width="100mm" height="50.0002mm" version="1.1" style="shape-rendering:geometricPrecision; text-rendering:geometricPrecision; image-rendering:optimizeQuality; fill-rule:evenodd; clip-rule:evenodd"
viewBox="0 0 999245 499623"
 xmlns:xlink="http://www.w3.org/1999/xlink"
 xmlns:xodm="http://www.corel.com/coreldraw/odm/2003">
 <defs>
  <style type="text/css">
   <![CDATA[
    .fil0 {fill:none}
    .fil3 {fill:#FFF}
    .fil2 {fill:#FFF;fill-rule:nonzero}
    .fil1 {fill:#FFF;fill-rule:nonzero}
   ]]>
  </style>
 </defs>
 <g id="Слой_x0020_1">
  <metadata id="CorelCorpID_0Corel-Layer"/>
  <rect class="fil0" width="999245" height="499623"/>
  <path class="fil1" d="M295999 227787l-11809 31947 23618 0 -11809 -31947zm-4920 -8591l9856 0 24484 64244 -9047 0 -5817 -16480 -29038 0 -5817 16480 -9150 0 24528 -64244z"/>
  <path id="1" class="fil1" d="M343485 226333l0 49968 10502 0c8856,0 15348,-2011 19461,-6021 4113,-4025 6169,-10355 6169,-19022 0,-8606 -2056,-14923 -6169,-18918 -4113,-4010 -10605,-6007 -19461,-6007l-10502 0zm-8724 -7138l17889 0c12441,0 21577,2585 27393,7769 5832,5170 8739,13278 8739,24294 0,11076 -2923,19197 -8768,24398 -5861,5184 -14982,7784 -27364,7784l-17889 0 0 -64244z"/>
  <path id="2" class="fil1" d="M441130 221310l0 8461c-3304,-1572 -6404,-2747 -9342,-3510 -2923,-778 -5743,-1160 -8460,-1160 -4744,0 -8388,910 -10958,2746 -2570,1837 -3848,4451 -3848,7829 0,2820 852,4949 2570,6389 1704,1439 4935,2614 9695,3539l5258 1028c6477,1234 11265,3407 14350,6536 3070,3115 4612,7285 4612,12530 0,6227 -2085,10942 -6256,14158 -4172,3218 -10282,4818 -18345,4818 -3041,0 -6272,-338 -9695,-1028 -3436,-675 -6977,-1690 -10649,-3026l0 -8989c3525,1982 6977,3481 10370,4480 3378,1013 6698,1513 9973,1513 4964,0 8783,-969 11485,-2923 2688,-1954 4039,-4744 4039,-8358 0,-3158 -969,-5625 -2908,-7402 -1939,-1778 -5111,-3114 -9533,-4010l-5287 -1028c-6478,-1292 -11164,-3304 -14056,-6051 -2894,-2761 -4348,-6580 -4348,-11485 0,-5670 1997,-10149 5992,-13410 4010,-3276 9518,-4906 16538,-4906 3011,0 6080,265 9209,807 3129,544 6316,1367 9592,2453z"/>
  <polygon id="3" class="fil1" points="454246,255768 477423,255768 477423,262819 454246,262819 "/>
  <polygon id="4" class="fil1" points="687856,272512 696933,272512 696933,283440 687856,283440 "/>
  <polygon id="5" class="fil1" points="490362,219196 499087,219196 499087,276126 530372,276126 530372,283440 490362,283440 "/>
  <polygon id="6" class="fil1" points="539464,219196 548188,219196 548188,283440 539464,283440 "/>
  <polygon id="7" class="fil1" points="565461,219196 577182,219196 605647,272850 605647,219196 614108,219196 614108,283440 602386,283440 573922,229771 573922,283440 565461,283440 "/>
  <polygon id="8" class="fil1" points="631380,219196 672007,219196 672007,226510 640105,226510 640105,245546 670686,245546 670686,252860 640105,252860 640105,276126 672800,276126 672800,283440 631380,283440 "/>
  <path id="9" class="fil1" d="M723796 226333l0 24147 10928 0c4039,0 7168,-1042 9371,-3143 2218,-2100 3319,-5082 3319,-8960 0,-3833 -1101,-6800 -3319,-8900 -2203,-2100 -5332,-3144 -9371,-3144l-10928 0zm-8724 -7138l19652 0c7198,0 12646,1630 16334,4876 3686,3261 5522,8034 5522,14305 0,6345 -1836,11134 -5522,14380 -3687,3246 -9136,4861 -16334,4861l-10928 0 0 25821 -8724 0 0 -64244z"/>
  <path id="10" class="fil1" d="M798705 253330c1866,632 3687,1982 5449,4039 1763,2071 3525,4906 5303,8520l8812 17552 -9371 0 -8166 -16480c-2130,-4304 -4187,-7154 -6169,-8564 -1997,-1395 -4700,-2100 -8137,-2100l-9489 0 0 27143 -8724 0 0 -64244 19652 0c7344,0 12823,1542 16436,4612 3613,3070 5420,7696 5420,13894 0,4054 -939,7403 -2820,10076 -1880,2673 -4612,4524 -8196,5552zm-21768 -26997l0 22826 10928 0c4186,0 7344,-970 9489,-2909 2129,-1939 3202,-4788 3202,-8549 0,-3760 -1072,-6595 -3202,-8504 -2144,-1910 -5303,-2865 -9489,-2865l-10928 0z"/>
  <path id="11" class="fil1" d="M855532 225100c-6315,0 -11323,2349 -15040,7050 -3716,4714 -5582,11119 -5582,19226 0,8093 1866,14482 5582,19197 3716,4699 8724,7050 15040,7050 6316,0 11310,-2350 14997,-7050 3687,-4715 5538,-11105 5538,-19197 0,-8108 -1851,-14512 -5538,-19226 -3686,-4700 -8680,-7050 -14997,-7050zm0 -7051c9004,0 16216,3011 21607,9048 5390,6036 8093,14129 8093,24279 0,10134 -2703,18213 -8093,24250 -5391,6036 -12602,9048 -21607,9048 -9032,0 -16259,-3012 -21679,-9033 -5406,-6022 -8108,-14100 -8108,-24265 0,-10149 2702,-18242 8108,-24279 5420,-6037 12646,-9048 21679,-9048z"/>
  <path class="fil2" d="M142796 183184c19065,11008 38131,22010 57196,33017l0 67223 -29114 16809 -8 0 -29105 16803 -29105 -16803 -8 0 -29114 -16809 0 -67223 29098 -16799c43,-26 87,-49 132,-71l28997 -16742 1031 596zm-3110 101545l-22989 13057 22989 13272 0 -26329zm-23926 8823l21417 -12164 -21417 -12127 0 24291zm29843 -12155l22157 12546 0 -24670 -22157 12124zm20883 16587l-22677 -13119 33 26192 22644 -13073zm-20575 -80590l21849 12615 0 -25230 -21849 12614zm28070 16207l21854 12617 0 -25235 -21854 12617zm21854 19744l-22536 12585 22536 12758 0 -25344zm-86170 12467l-21971 -12442 0 25271 21971 -12829zm-21971 -19593l21853 -12617 -21853 -12617 0 25235zm49923 -28824l-21857 -12619 0 25240 21857 -12620zm-19785 -16211l21853 12617 0 -25235 -21853 12617zm26010 12617l21853 -12617 -21853 -12617 0 25235zm-32223 23391l-21828 12602 21836 12561 -8 -25164zm6514 28651l21552 12203 0 -24645 -21552 12443zm25709 11792l21338 -11713 -21371 -12524 33 24237zm28008 -15279l21866 -12573 -21800 -12585 -66 25159zm-26674 -12559l22584 12671 0 -25276 -22584 12604zm48539 32462l-21816 -12986 17 25572 21799 -12585zm-77956 -19823l21866 -12624 -21866 -12624 0 25249zm-4156 6837l-21846 12954 21862 12621 -16 -25576zm16 -39253l0 -25245 -21862 12622 21862 12622zm60296 -25240l0 25235 21854 -12617 -21854 -12617zm-32231 16209l-21853 12617 21853 12616 0 -25234zm26010 12617l-21853 -12617 0 25234 21853 -12616z"/>
  <rect class="fil3" x="229936" y="162535" width="6546" height="174556"/>
 </g>
</svg>
